<svg width="35" height="35" viewBox="0 0 35 35" fill="none" xmlns="http://www.w3.org/2000/svg">
<circle cx="17.3008" cy="17.3009" r="17.3008" fill="white"/>
<path d="M20.4069 8.4961L11 17.5873L20.4069 26.6786C20.6633 26.9256 21.0073 27.0606 21.3632 27.0539C21.7192 27.0472 22.0579 26.8995 22.3049 26.6431C22.5518 26.3867 22.6868 26.0427 22.6802 25.6867C22.6735 25.3308 22.5257 24.9921 22.2693 24.7451L14.859 17.5873L22.2693 10.4217C22.5257 10.1747 22.6735 9.83599 22.6802 9.48006C22.6868 9.12412 22.5518 8.78012 22.3049 8.52372C22.0579 8.26733 21.7192 8.11955 21.3632 8.11289C21.0073 8.10623 20.6633 8.24124 20.4069 8.48821V8.4961Z" fill="#00468B"/>
</svg>
