<svg width="43" height="43" viewBox="0 0 43 43" fill="none" xmlns="http://www.w3.org/2000/svg">
<circle cx="21.1351" cy="21.5408" r="20.87" fill="white"/>
<path d="M21.1352 20.8886V31.9758M21.1352 31.9758L25.0483 28.0627M21.1352 31.9758L17.2221 28.0627M15.9177 15.0655C16.8602 15.2008 17.7686 15.631 18.4937 16.3561M28.3092 24.1496C30.2903 24.1496 31.5702 22.5436 31.5702 20.5625C31.5702 18.9131 30.4569 17.5237 28.9408 17.1048C28.6744 13.7473 25.8654 11.1058 22.4395 11.1058C19.7105 11.1058 17.3729 12.7821 16.4003 15.1611C16.0374 15.0683 15.6572 15.019 15.2655 15.019C12.7442 15.019 10.7002 17.0629 10.7002 19.5843C10.7002 21.6524 12.0753 23.3993 13.9611 23.9605" stroke="#00468B" stroke-width="2.18964" stroke-linecap="round" stroke-linejoin="round"/>
</svg>
