<svg width="42" height="42" viewBox="0 0 42 42" fill="none" xmlns="http://www.w3.org/2000/svg">
<circle cx="20.87" cy="20.87" r="20.87" fill="white"/>
<path d="M10 29.2612L9.23701 28.9578C9.12581 29.2374 9.17646 29.5554 9.369 29.7866C9.56155 30.0179 9.86515 30.1253 10.1603 30.0665L10 29.2612ZM16.1382 28.0397L16.5271 27.3165L16.2673 27.1768L15.978 27.2344L16.1382 28.0397ZM12.1182 23.935L12.8812 24.2385L13.0161 23.8991L12.8544 23.5715L12.1182 23.935ZM30.0488 20.1306C30.0488 24.6645 26.0768 28.4401 21.0488 28.4401V30.0823C26.869 30.0823 31.6911 25.6821 31.6911 20.1306H30.0488ZM12.0488 20.1306C12.0488 15.5968 16.0208 11.8211 21.0488 11.8211V10.1789C15.2286 10.1789 10.4065 14.5791 10.4065 20.1306H12.0488ZM21.0488 11.8211C26.0768 11.8211 30.0488 15.5968 30.0488 20.1306H31.6911C31.6911 14.5791 26.869 10.1789 21.0488 10.1789V11.8211ZM21.0488 28.4401C19.3968 28.4401 17.8532 28.0297 16.5271 27.3165L15.7493 28.7629C17.3124 29.6035 19.1231 30.0823 21.0488 30.0823V28.4401ZM10.1603 30.0665L16.2985 28.845L15.978 27.2344L9.83974 28.4559L10.1603 30.0665ZM12.8544 23.5715C12.3366 22.5225 12.0488 21.358 12.0488 20.1306H10.4065C10.4065 21.6187 10.7563 23.0312 11.3819 24.2985L12.8544 23.5715ZM11.3552 23.6316L9.23701 28.9578L10.763 29.5646L12.8812 24.2385L11.3552 23.6316Z" fill="#0051A2"/>
<circle cx="16.5219" cy="20.1307" r="0.684261" fill="white" stroke="#00468B" stroke-width="1.24022"/>
<circle cx="21.0871" cy="20.1307" r="0.684261" fill="white" stroke="#00468B" stroke-width="1.24022"/>
<circle cx="25.6525" cy="20.1307" r="0.684261" fill="white" stroke="#00468B" stroke-width="1.24022"/>
</svg>
