<svg width="35" height="36" viewBox="0 0 35 36" fill="none" xmlns="http://www.w3.org/2000/svg">
<circle cx="17.6309" cy="17.7485" r="17.3008" fill="white"/>
<path d="M10.5977 11.5945C10.5977 11.109 10.9913 10.7153 11.4768 10.7153H14.9934C15.479 10.7153 15.8726 11.109 15.8726 11.5945V15.9903C15.8726 16.4758 15.479 16.8694 14.9934 16.8694H11.4768C10.9913 16.8694 10.5977 16.4758 10.5977 15.9903V11.5945Z" stroke="#00468B" stroke-width="1.77908"/>
<path d="M19.3892 11.5945C19.3892 11.109 19.7828 10.7153 20.2684 10.7153H23.785C24.2705 10.7153 24.6641 11.109 24.6641 11.5945V13.3528C24.6641 13.8383 24.2705 14.232 23.785 14.232H20.2684C19.7828 14.232 19.3892 13.8383 19.3892 13.3528V11.5945Z" stroke="#00468B" stroke-width="1.77908"/>
<path d="M10.5977 21.2652C10.5977 20.7797 10.9913 20.386 11.4768 20.386H14.9934C15.479 20.386 15.8726 20.7797 15.8726 21.2652V23.9027C15.8726 24.3882 15.479 24.7818 14.9934 24.7818H11.4768C10.9913 24.7818 10.5977 24.3882 10.5977 23.9027V21.2652Z" stroke="#00468B" stroke-width="1.77908"/>
<path d="M19.3892 18.6277C19.3892 18.1422 19.7828 17.7486 20.2684 17.7486H23.785C24.2705 17.7486 24.6641 18.1422 24.6641 18.6277V23.9027C24.6641 24.3882 24.2705 24.7818 23.785 24.7818H20.2684C19.7828 24.7818 19.3892 24.3882 19.3892 23.9027V18.6277Z" stroke="#00468B" stroke-width="1.77908"/>
</svg>
