<svg width="35" height="36" viewBox="0 0 35 36" fill="none" xmlns="http://www.w3.org/2000/svg">
<circle cx="17.3008" cy="17.7485" r="17.3008" fill="white"/>
<path d="M14.5931 26.558L24 17.4668L14.5931 8.37556C14.3367 8.12858 13.9927 7.99358 13.6368 8.00024C13.2808 8.0069 12.9421 8.15468 12.6951 8.41107C12.4482 8.66746 12.3132 9.01147 12.3198 9.3674C12.3265 9.72334 12.4743 10.062 12.7307 10.309L20.141 17.4668L12.7307 24.6325C12.4743 24.8794 12.3265 25.2181 12.3198 25.5741C12.3132 25.93 12.4482 26.274 12.6951 26.5304C12.9421 26.7868 13.2808 26.9346 13.6368 26.9412C13.9927 26.9479 14.3367 26.8129 14.5931 26.5659V26.558Z" fill="#00468B"/>
</svg>
